<?xml version="1.0" encoding="iso-8859-1"?>
<!-- Generator: Adobe Illustrator 19.0.0, SVG Export Plug-In . SVG Version: 6.00 Build 0)  -->
<svg xmlns="http://www.w3.org/2000/svg" xmlns:xlink="http://www.w3.org/1999/xlink" version="1.1" id="Layer_1" x="0px" y="0px" viewBox="0 0 512 512" style="enable-background:new 0 0 512 512;" xml:space="preserve" width="512" height="512">
<g id="XMLID_1148_">
	<path id="XMLID_753_" style="fill:#FFCB78;" d="M482,50H30c-11.046,0-20,8.954-20,20v372c0,11.046,8.954,20,20,20h452   c11.046,0,20-8.954,20-20V70C502,58.954,493.046,50,482,50z"/>
	<rect id="XMLID_752_" x="54" y="94" style="fill:#FFFFFF;" width="404" height="324"/>
	<g id="XMLID_1164_">
		<path id="XMLID_214_" d="M482,472H30c-16.542,0-30-13.458-30-30V70c0-16.542,13.458-30,30-30h76c5.522,0,10,4.477,10,10    s-4.478,10-10,10H30c-5.514,0-10,4.486-10,10v372c0,5.514,4.486,10,10,10h452c5.514,0,10-4.486,10-10V70c0-5.514-4.486-10-10-10    H186c-5.522,0-10-4.477-10-10s4.478-10,10-10h296c16.542,0,30,13.458,30,30v372C512,458.542,498.542,472,482,472z"/>
	</g>
	<g id="XMLID_1756_">
		<rect id="XMLID_1757_" x="102" y="142" style="fill:#FED2A4;" width="88" height="96"/>
		<rect id="XMLID_1762_" x="212" y="277.563" style="fill:#FED2A4;" width="88" height="96"/>
		<rect id="XMLID_1763_" x="324.333" y="142" style="fill:#FED2A4;" width="88" height="96"/>
	</g>
	<g id="XMLID_751_">
		<path id="XMLID_211_" d="M458,428H54c-5.522,0-10-4.477-10-10V94c0-5.523,4.478-10,10-10h404c5.522,0,10,4.477,10,10v324    C468,423.523,463.522,428,458,428z M64,408h384V104H64V408z"/>
	</g>
	<g id="XMLID_756_">
		<g id="XMLID_754_">
			<path id="XMLID_208_" d="M190,248h-88c-5.522,0-10-4.477-10-10v-96c0-5.523,4.478-10,10-10h88c5.522,0,10,4.477,10,10v96     C200,243.523,195.522,248,190,248z M112,228h68v-76h-68V228z"/>
		</g>
		<g id="XMLID_755_">
			<path id="XMLID_207_" d="M146,177.44c-2.63,0-5.21-1.07-7.07-2.93s-2.93-4.43-2.93-7.07c0-2.63,1.069-5.21,2.93-7.07     c1.86-1.86,4.44-2.93,7.07-2.93s5.21,1.07,7.069,2.93c1.86,1.86,2.931,4.44,2.931,7.07c0,2.64-1.07,5.21-2.931,7.07     C151.21,176.37,148.63,177.44,146,177.44z"/>
		</g>
	</g>
	<g id="XMLID_776_">
		<g id="XMLID_779_">
			<path id="XMLID_204_" d="M300,383.563h-88c-5.522,0-10-4.477-10-10v-96c0-5.523,4.478-10,10-10h88c5.522,0,10,4.477,10,10v96     C310,379.086,305.522,383.563,300,383.563z M222,363.563h68v-76h-68V363.563z"/>
		</g>
		<g id="XMLID_778_">
			<path id="XMLID_203_" d="M256,313.01c-2.63,0-5.21-1.07-7.07-2.93c-1.86-1.86-2.93-4.44-2.93-7.07c0-2.64,1.069-5.21,2.93-7.07     c1.86-1.87,4.44-2.93,7.07-2.93s5.21,1.06,7.069,2.93c1.86,1.86,2.931,4.44,2.931,7.07s-1.07,5.21-2.931,7.07     C261.21,311.94,258.63,313.01,256,313.01z"/>
		</g>
	</g>
	<g id="XMLID_781_">
		<g id="XMLID_788_">
			<path id="XMLID_200_" d="M412.333,248h-88c-5.522,0-10-4.477-10-10v-96c0-5.523,4.478-10,10-10h88c5.522,0,10,4.477,10,10v96     C422.333,243.523,417.855,248,412.333,248z M334.333,228h68v-76h-68V228z"/>
		</g>
		<g id="XMLID_787_">
			<path id="XMLID_199_" d="M368.33,177.44c-2.63,0-5.21-1.06-7.07-2.93c-1.86-1.86-2.93-4.43-2.93-7.07     c0-2.63,1.069-5.21,2.93-7.07c1.86-1.86,4.44-2.93,7.07-2.93s5.21,1.07,7.069,2.93c1.87,1.87,2.931,4.44,2.931,7.07     s-1.061,5.21-2.931,7.07C373.54,176.38,370.97,177.44,368.33,177.44z"/>
		</g>
	</g>
	<g id="XMLID_1165_">
		<path id="XMLID_198_" d="M146,60c-2.63,0-5.21-1.07-7.07-2.93S136,52.63,136,50c0-2.63,1.069-5.21,2.93-7.07    c1.86-1.86,4.44-2.93,7.07-2.93s5.21,1.07,7.069,2.93C154.93,44.79,156,47.37,156,50c0,2.63-1.07,5.21-2.931,7.07    C151.21,58.93,148.63,60,146,60z"/>
	</g>
	<g id="XMLID_1989_">
		<path id="XMLID_197_" d="M368.33,388c-2.63,0-5.21-1.07-7.07-2.93s-2.93-4.44-2.93-7.07c0-2.63,1.069-5.21,2.93-7.07    c1.86-1.86,4.44-2.93,7.07-2.93s5.21,1.07,7.069,2.93c1.87,1.86,2.931,4.44,2.931,7.07c0,2.63-1.061,5.21-2.931,7.07    C373.54,386.93,370.96,388,368.33,388z"/>
	</g>
	<g id="XMLID_1990_">
		<path id="XMLID_196_" d="M458,388h-49.667c-5.522,0-10-4.477-10-10s4.478-10,10-10H458c5.522,0,10,4.477,10,10    S463.522,388,458,388z"/>
	</g>
</g>















</svg>
